<?xml version="1.0" encoding="utf-8"?>
<!-- Generator: Adobe Illustrator 19.1.0, SVG Export Plug-In . SVG Version: 6.00 Build 0)  -->
<svg version="1.1" id="Capa_1" xmlns="http://www.w3.org/2000/svg" xmlns:xlink="http://www.w3.org/1999/xlink" x="0px" y="0px"
	 width="31.4px" height="31.4px" viewBox="-80 81.6 31.4 31.4" style="enable-background:new -80 81.6 31.4 31.4;"
	 xml:space="preserve">
<style type="text/css">
	.st0{fill:#B1AFAF;}
</style>
<g>
	<g>
		<path class="st0" d="M-64.3,81.6c-8.6,0-15.7,7-15.7,15.7c0,8.6,7,15.7,15.7,15.7c8.6,0,15.7-7,15.7-15.7
			C-48.6,88.7-55.7,81.6-64.3,81.6z M-64.3,110.5c-7.3,0-13.2-5.9-13.2-13.2c0-7.3,5.9-13.2,13.2-13.2c7.3,0,13.2,5.9,13.2,13.2
			C-51.1,104.6-57.1,110.5-64.3,110.5z"/project-name-co-uk/_img/>
		<path class="st0" d="M-60.8,94v-5c0-0.9-0.7-1.6-1.6-1.6h-3.4c-0.9,0-1.6,0.7-1.6,1.6v5h-5c-0.9,0-1.6,0.7-1.6,1.6V99
			c0,0.9,0.7,1.6,1.6,1.6h5v5c0,0.9,0.7,1.6,1.6,1.6h3.4c0.9,0,1.6-0.7,1.6-1.6v-5h5c0.9,0,1.6-0.7,1.6-1.6v-3.5
			c0-0.9-0.7-1.6-1.6-1.6H-60.8z"/project-name-co-uk/_img/>
	</g>
</g>
</svg>
